<?xml version="1.0" standalone="no"?>
<!DOCTYPE svg PUBLIC "-//W3C//DTD SVG 20010904//EN"
 "http://www.w3.org/TR/2001/REC-SVG-20010904/DTD/svg10.dtd">
<svg version="1.0" xmlns="http://www.w3.org/2000/svg"
 width="600.000000pt" height="600.000000pt" viewBox="0 0 600.000000 600.000000"
 preserveAspectRatio="xMidYMid meet">
<metadata>
Created by potrace 1.14, written by Peter Selinger 2001-2017
</metadata>
<g transform="translate(0.000000,600.000000) scale(0.100000,-0.100000)"
fill="#000000" stroke="none">
<path d="M1750 4969 l0 -784 589 -588 c324 -324 591 -585 594 -580 2 4 4 368
4 808 l0 800 -51 48 c-28 27 -87 83 -131 125 -71 67 -317 301 -440 417 -23 22
-109 104 -191 181 -82 78 -169 160 -194 184 -25 23 -75 71 -112 107 l-68 66 0
-784z"/>
<path d="M4903 5471 c-117 -146 -221 -277 -232 -291 -11 -14 -104 -131 -206
-260 -103 -129 -200 -251 -215 -270 -16 -19 -130 -163 -255 -320 -124 -157
-231 -292 -238 -300 -7 -8 -37 -47 -67 -85 -30 -39 -57 -72 -60 -75 -3 -3 -75
-93 -160 -200 -355 -449 -513 -646 -528 -657 -12 -10 -161 -13 -665 -13 -622
0 -650 -1 -666 -19 -9 -10 -32 -37 -51 -61 -19 -23 -40 -47 -45 -53 -9 -10
-172 -207 -303 -366 -49 -59 -96 -115 -102 -121 -3 -3 -17 -21 -31 -40 -15
-19 -39 -48 -53 -65 -15 -16 -54 -65 -89 -107 l-62 -77 0 -920 c0 -506 3 -917
6 -913 4 4 219 291 478 637 260 347 482 644 495 660 13 17 229 305 480 640
251 336 467 623 479 639 12 15 45 58 72 95 l50 66 627 3 626 2 99 113 c54 61
100 114 104 117 3 3 43 48 89 100 103 119 192 219 205 234 6 6 60 67 120 136
124 141 151 172 221 250 28 30 61 69 75 85 l24 31 0 831 c0 457 -2 833 -5 836
-3 3 -100 -115 -217 -262z"/>
<path d="M2939 2964 c0 -16 -1 -373 -1 -794 l0 -765 570 -569 c313 -313 573
-568 578 -567 4 0 8 361 8 802 l1 800 -125 124 c-69 68 -165 163 -215 211 -49
47 -211 204 -359 348 -148 143 -301 293 -340 331 -40 39 -82 79 -94 89 -22 19
-22 19 -23 -10z"/>
</g>
</svg>
